<svg id="Layer_1" height="512" viewBox="0 0 512 512" width="512" xmlns="http://www.w3.org/2000/svg" data-name="Layer 1"><path d="m345.993 161.056a89.993 89.993 0 1 0 -89.993 89.992 90.1 90.1 0 0 0 89.993-89.992zm-147.985 0a57.993 57.993 0 1 1 57.992 57.992 58.058 58.058 0 0 1 -57.992-57.992zm48.125 259.492a16 16 0 0 0 19.888 0c72.743-57.709 151.035-163.528 151.035-259.492 0-88.806-72.249-161.056-161.056-161.056s-161.056 72.25-161.056 161.056c0 45.143 17.274 95.941 49.952 146.9 26.773 41.753 63.672 82.79 101.237 112.592zm9.867-388.548a129.2 129.2 0 0 1 129.056 129.056c0 77.633-63.338 170.275-128.985 226.245-63.971-54.419-129.127-145.201-129.127-226.245a129.2 129.2 0 0 1 129.056-129.056zm233.364 395.446c0 18.306-12.986 44.223-74.852 63.735-42.57 13.425-98.864 20.819-158.512 20.819s-115.942-7.394-158.512-20.819c-61.866-19.512-74.852-45.429-74.852-63.735 0-31.511 37.865-57.111 106.619-72.081a16 16 0 1 1 6.808 31.268c-59.321 12.916-81.427 31.888-81.427 40.813 0 5.764 10.968 20.124 52.477 33.216 39.539 12.47 92.415 19.338 148.887 19.338s109.348-6.868 148.887-19.338c41.509-13.092 52.477-27.452 52.477-33.216 0-8.925-22.106-27.9-81.428-40.816a16 16 0 0 1 6.808-31.268c68.756 14.97 106.62 40.571 106.62 72.084z"/></svg>